G04 #@! TF.GenerationSoftware,KiCad,Pcbnew,8.0.7*
G04 #@! TF.CreationDate,2024-12-28T18:40:06+08:00*
G04 #@! TF.ProjectId,macroknob,6d616372-6f6b-46e6-9f62-2e6b69636164,rev?*
G04 #@! TF.SameCoordinates,Original*
G04 #@! TF.FileFunction,Legend,Top*
G04 #@! TF.FilePolarity,Positive*
%FSLAX46Y46*%
G04 Gerber Fmt 4.6, Leading zero omitted, Abs format (unit mm)*
G04 Created by KiCad (PCBNEW 8.0.7) date 2024-12-28 18:40:06*
%MOMM*%
%LPD*%
G01*
G04 APERTURE LIST*
G04 Aperture macros list*
%AMRoundRect*
0 Rectangle with rounded corners*
0 $1 Rounding radius*
0 $2 $3 $4 $5 $6 $7 $8 $9 X,Y pos of 4 corners*
0 Add a 4 corners polygon primitive as box body*
4,1,4,$2,$3,$4,$5,$6,$7,$8,$9,$2,$3,0*
0 Add four circle primitives for the rounded corners*
1,1,$1+$1,$2,$3*
1,1,$1+$1,$4,$5*
1,1,$1+$1,$6,$7*
1,1,$1+$1,$8,$9*
0 Add four rect primitives between the rounded corners*
20,1,$1+$1,$2,$3,$4,$5,0*
20,1,$1+$1,$4,$5,$6,$7,0*
20,1,$1+$1,$6,$7,$8,$9,0*
20,1,$1+$1,$8,$9,$2,$3,0*%
G04 Aperture macros list end*
%ADD10C,0.050000*%
%ADD11C,0.200000*%
%ADD12C,0.150000*%
%ADD13C,0.120000*%
%ADD14C,2.000000*%
%ADD15R,2.000000X3.200000*%
%ADD16R,2.000000X2.000000*%
%ADD17C,1.752600*%
%ADD18C,1.750000*%
%ADD19C,4.000000*%
%ADD20C,2.500000*%
%ADD21O,1.200000X1.750000*%
%ADD22RoundRect,0.250000X0.350000X0.625000X-0.350000X0.625000X-0.350000X-0.625000X0.350000X-0.625000X0*%
G04 APERTURE END LIST*
D10*
X127435000Y-39370000D02*
G75*
G02*
X102435000Y-39370000I-12500000J0D01*
G01*
X102435000Y-39370000D02*
G75*
G02*
X127435000Y-39370000I12500000J0D01*
G01*
D11*
X125893244Y-45407219D02*
X125702768Y-45407219D01*
X125702768Y-45407219D02*
X125607530Y-45454838D01*
X125607530Y-45454838D02*
X125559911Y-45502457D01*
X125559911Y-45502457D02*
X125464673Y-45645314D01*
X125464673Y-45645314D02*
X125417054Y-45835790D01*
X125417054Y-45835790D02*
X125417054Y-46216742D01*
X125417054Y-46216742D02*
X125464673Y-46311980D01*
X125464673Y-46311980D02*
X125512292Y-46359600D01*
X125512292Y-46359600D02*
X125607530Y-46407219D01*
X125607530Y-46407219D02*
X125798006Y-46407219D01*
X125798006Y-46407219D02*
X125893244Y-46359600D01*
X125893244Y-46359600D02*
X125940863Y-46311980D01*
X125940863Y-46311980D02*
X125988482Y-46216742D01*
X125988482Y-46216742D02*
X125988482Y-45978647D01*
X125988482Y-45978647D02*
X125940863Y-45883409D01*
X125940863Y-45883409D02*
X125893244Y-45835790D01*
X125893244Y-45835790D02*
X125798006Y-45788171D01*
X125798006Y-45788171D02*
X125607530Y-45788171D01*
X125607530Y-45788171D02*
X125512292Y-45835790D01*
X125512292Y-45835790D02*
X125464673Y-45883409D01*
X125464673Y-45883409D02*
X125417054Y-45978647D01*
X102929136Y-37882457D02*
X102976755Y-37834838D01*
X102976755Y-37834838D02*
X103071993Y-37787219D01*
X103071993Y-37787219D02*
X103310088Y-37787219D01*
X103310088Y-37787219D02*
X103405326Y-37834838D01*
X103405326Y-37834838D02*
X103452945Y-37882457D01*
X103452945Y-37882457D02*
X103500564Y-37977695D01*
X103500564Y-37977695D02*
X103500564Y-38072933D01*
X103500564Y-38072933D02*
X103452945Y-38215790D01*
X103452945Y-38215790D02*
X102881517Y-38787219D01*
X102881517Y-38787219D02*
X103500564Y-38787219D01*
X104119612Y-37787219D02*
X104214850Y-37787219D01*
X104214850Y-37787219D02*
X104310088Y-37834838D01*
X104310088Y-37834838D02*
X104357707Y-37882457D01*
X104357707Y-37882457D02*
X104405326Y-37977695D01*
X104405326Y-37977695D02*
X104452945Y-38168171D01*
X104452945Y-38168171D02*
X104452945Y-38406266D01*
X104452945Y-38406266D02*
X104405326Y-38596742D01*
X104405326Y-38596742D02*
X104357707Y-38691980D01*
X104357707Y-38691980D02*
X104310088Y-38739600D01*
X104310088Y-38739600D02*
X104214850Y-38787219D01*
X104214850Y-38787219D02*
X104119612Y-38787219D01*
X104119612Y-38787219D02*
X104024374Y-38739600D01*
X104024374Y-38739600D02*
X103976755Y-38691980D01*
X103976755Y-38691980D02*
X103929136Y-38596742D01*
X103929136Y-38596742D02*
X103881517Y-38406266D01*
X103881517Y-38406266D02*
X103881517Y-38168171D01*
X103881517Y-38168171D02*
X103929136Y-37977695D01*
X103929136Y-37977695D02*
X103976755Y-37882457D01*
X103976755Y-37882457D02*
X104024374Y-37834838D01*
X104024374Y-37834838D02*
X104119612Y-37787219D01*
X125417054Y-35342457D02*
X125464673Y-35294838D01*
X125464673Y-35294838D02*
X125559911Y-35247219D01*
X125559911Y-35247219D02*
X125798006Y-35247219D01*
X125798006Y-35247219D02*
X125893244Y-35294838D01*
X125893244Y-35294838D02*
X125940863Y-35342457D01*
X125940863Y-35342457D02*
X125988482Y-35437695D01*
X125988482Y-35437695D02*
X125988482Y-35532933D01*
X125988482Y-35532933D02*
X125940863Y-35675790D01*
X125940863Y-35675790D02*
X125369435Y-36247219D01*
X125369435Y-36247219D02*
X125988482Y-36247219D01*
X103500564Y-43867219D02*
X102929136Y-43867219D01*
X103214850Y-43867219D02*
X103214850Y-42867219D01*
X103214850Y-42867219D02*
X103119612Y-43010076D01*
X103119612Y-43010076D02*
X103024374Y-43105314D01*
X103024374Y-43105314D02*
X102929136Y-43152933D01*
X104071993Y-43295790D02*
X103976755Y-43248171D01*
X103976755Y-43248171D02*
X103929136Y-43200552D01*
X103929136Y-43200552D02*
X103881517Y-43105314D01*
X103881517Y-43105314D02*
X103881517Y-43057695D01*
X103881517Y-43057695D02*
X103929136Y-42962457D01*
X103929136Y-42962457D02*
X103976755Y-42914838D01*
X103976755Y-42914838D02*
X104071993Y-42867219D01*
X104071993Y-42867219D02*
X104262469Y-42867219D01*
X104262469Y-42867219D02*
X104357707Y-42914838D01*
X104357707Y-42914838D02*
X104405326Y-42962457D01*
X104405326Y-42962457D02*
X104452945Y-43057695D01*
X104452945Y-43057695D02*
X104452945Y-43105314D01*
X104452945Y-43105314D02*
X104405326Y-43200552D01*
X104405326Y-43200552D02*
X104357707Y-43248171D01*
X104357707Y-43248171D02*
X104262469Y-43295790D01*
X104262469Y-43295790D02*
X104071993Y-43295790D01*
X104071993Y-43295790D02*
X103976755Y-43343409D01*
X103976755Y-43343409D02*
X103929136Y-43391028D01*
X103929136Y-43391028D02*
X103881517Y-43486266D01*
X103881517Y-43486266D02*
X103881517Y-43676742D01*
X103881517Y-43676742D02*
X103929136Y-43771980D01*
X103929136Y-43771980D02*
X103976755Y-43819600D01*
X103976755Y-43819600D02*
X104071993Y-43867219D01*
X104071993Y-43867219D02*
X104262469Y-43867219D01*
X104262469Y-43867219D02*
X104357707Y-43819600D01*
X104357707Y-43819600D02*
X104405326Y-43771980D01*
X104405326Y-43771980D02*
X104452945Y-43676742D01*
X104452945Y-43676742D02*
X104452945Y-43486266D01*
X104452945Y-43486266D02*
X104405326Y-43391028D01*
X104405326Y-43391028D02*
X104357707Y-43343409D01*
X104357707Y-43343409D02*
X104262469Y-43295790D01*
X125988482Y-30214838D02*
X125893244Y-30167219D01*
X125893244Y-30167219D02*
X125750387Y-30167219D01*
X125750387Y-30167219D02*
X125607530Y-30214838D01*
X125607530Y-30214838D02*
X125512292Y-30310076D01*
X125512292Y-30310076D02*
X125464673Y-30405314D01*
X125464673Y-30405314D02*
X125417054Y-30595790D01*
X125417054Y-30595790D02*
X125417054Y-30738647D01*
X125417054Y-30738647D02*
X125464673Y-30929123D01*
X125464673Y-30929123D02*
X125512292Y-31024361D01*
X125512292Y-31024361D02*
X125607530Y-31119600D01*
X125607530Y-31119600D02*
X125750387Y-31167219D01*
X125750387Y-31167219D02*
X125845625Y-31167219D01*
X125845625Y-31167219D02*
X125988482Y-31119600D01*
X125988482Y-31119600D02*
X126036101Y-31071980D01*
X126036101Y-31071980D02*
X126036101Y-30738647D01*
X126036101Y-30738647D02*
X125845625Y-30738647D01*
X126464673Y-31167219D02*
X126464673Y-30167219D01*
X126464673Y-30167219D02*
X127036101Y-31167219D01*
X127036101Y-31167219D02*
X127036101Y-30167219D01*
X127512292Y-31167219D02*
X127512292Y-30167219D01*
X127512292Y-30167219D02*
X127750387Y-30167219D01*
X127750387Y-30167219D02*
X127893244Y-30214838D01*
X127893244Y-30214838D02*
X127988482Y-30310076D01*
X127988482Y-30310076D02*
X128036101Y-30405314D01*
X128036101Y-30405314D02*
X128083720Y-30595790D01*
X128083720Y-30595790D02*
X128083720Y-30738647D01*
X128083720Y-30738647D02*
X128036101Y-30929123D01*
X128036101Y-30929123D02*
X127988482Y-31024361D01*
X127988482Y-31024361D02*
X127893244Y-31119600D01*
X127893244Y-31119600D02*
X127750387Y-31167219D01*
X127750387Y-31167219D02*
X127512292Y-31167219D01*
X117189286Y-50582457D02*
X117236905Y-50534838D01*
X117236905Y-50534838D02*
X117332143Y-50487219D01*
X117332143Y-50487219D02*
X117570238Y-50487219D01*
X117570238Y-50487219D02*
X117665476Y-50534838D01*
X117665476Y-50534838D02*
X117713095Y-50582457D01*
X117713095Y-50582457D02*
X117760714Y-50677695D01*
X117760714Y-50677695D02*
X117760714Y-50772933D01*
X117760714Y-50772933D02*
X117713095Y-50915790D01*
X117713095Y-50915790D02*
X117141667Y-51487219D01*
X117141667Y-51487219D02*
X117760714Y-51487219D01*
X102976755Y-25563409D02*
X103119612Y-25611028D01*
X103119612Y-25611028D02*
X103167231Y-25658647D01*
X103167231Y-25658647D02*
X103214850Y-25753885D01*
X103214850Y-25753885D02*
X103214850Y-25896742D01*
X103214850Y-25896742D02*
X103167231Y-25991980D01*
X103167231Y-25991980D02*
X103119612Y-26039600D01*
X103119612Y-26039600D02*
X103024374Y-26087219D01*
X103024374Y-26087219D02*
X102643422Y-26087219D01*
X102643422Y-26087219D02*
X102643422Y-25087219D01*
X102643422Y-25087219D02*
X102976755Y-25087219D01*
X102976755Y-25087219D02*
X103071993Y-25134838D01*
X103071993Y-25134838D02*
X103119612Y-25182457D01*
X103119612Y-25182457D02*
X103167231Y-25277695D01*
X103167231Y-25277695D02*
X103167231Y-25372933D01*
X103167231Y-25372933D02*
X103119612Y-25468171D01*
X103119612Y-25468171D02*
X103071993Y-25515790D01*
X103071993Y-25515790D02*
X102976755Y-25563409D01*
X102976755Y-25563409D02*
X102643422Y-25563409D01*
X103643422Y-25706266D02*
X104405327Y-25706266D01*
X104024374Y-26087219D02*
X104024374Y-25325314D01*
X125369435Y-47947219D02*
X126036101Y-47947219D01*
X126036101Y-47947219D02*
X125607530Y-48947219D01*
X125369435Y-37787219D02*
X125988482Y-37787219D01*
X125988482Y-37787219D02*
X125655149Y-38168171D01*
X125655149Y-38168171D02*
X125798006Y-38168171D01*
X125798006Y-38168171D02*
X125893244Y-38215790D01*
X125893244Y-38215790D02*
X125940863Y-38263409D01*
X125940863Y-38263409D02*
X125988482Y-38358647D01*
X125988482Y-38358647D02*
X125988482Y-38596742D01*
X125988482Y-38596742D02*
X125940863Y-38691980D01*
X125940863Y-38691980D02*
X125893244Y-38739600D01*
X125893244Y-38739600D02*
X125798006Y-38787219D01*
X125798006Y-38787219D02*
X125512292Y-38787219D01*
X125512292Y-38787219D02*
X125417054Y-38739600D01*
X125417054Y-38739600D02*
X125369435Y-38691980D01*
X103500564Y-46407219D02*
X102929136Y-46407219D01*
X103214850Y-46407219D02*
X103214850Y-45407219D01*
X103214850Y-45407219D02*
X103119612Y-45550076D01*
X103119612Y-45550076D02*
X103024374Y-45645314D01*
X103024374Y-45645314D02*
X102929136Y-45692933D01*
X104405326Y-45407219D02*
X103929136Y-45407219D01*
X103929136Y-45407219D02*
X103881517Y-45883409D01*
X103881517Y-45883409D02*
X103929136Y-45835790D01*
X103929136Y-45835790D02*
X104024374Y-45788171D01*
X104024374Y-45788171D02*
X104262469Y-45788171D01*
X104262469Y-45788171D02*
X104357707Y-45835790D01*
X104357707Y-45835790D02*
X104405326Y-45883409D01*
X104405326Y-45883409D02*
X104452945Y-45978647D01*
X104452945Y-45978647D02*
X104452945Y-46216742D01*
X104452945Y-46216742D02*
X104405326Y-46311980D01*
X104405326Y-46311980D02*
X104357707Y-46359600D01*
X104357707Y-46359600D02*
X104262469Y-46407219D01*
X104262469Y-46407219D02*
X104024374Y-46407219D01*
X104024374Y-46407219D02*
X103929136Y-46359600D01*
X103929136Y-46359600D02*
X103881517Y-46311980D01*
X102738659Y-31167219D02*
X102405326Y-30691028D01*
X102167231Y-31167219D02*
X102167231Y-30167219D01*
X102167231Y-30167219D02*
X102548183Y-30167219D01*
X102548183Y-30167219D02*
X102643421Y-30214838D01*
X102643421Y-30214838D02*
X102691040Y-30262457D01*
X102691040Y-30262457D02*
X102738659Y-30357695D01*
X102738659Y-30357695D02*
X102738659Y-30500552D01*
X102738659Y-30500552D02*
X102691040Y-30595790D01*
X102691040Y-30595790D02*
X102643421Y-30643409D01*
X102643421Y-30643409D02*
X102548183Y-30691028D01*
X102548183Y-30691028D02*
X102167231Y-30691028D01*
X103119612Y-31119600D02*
X103262469Y-31167219D01*
X103262469Y-31167219D02*
X103500564Y-31167219D01*
X103500564Y-31167219D02*
X103595802Y-31119600D01*
X103595802Y-31119600D02*
X103643421Y-31071980D01*
X103643421Y-31071980D02*
X103691040Y-30976742D01*
X103691040Y-30976742D02*
X103691040Y-30881504D01*
X103691040Y-30881504D02*
X103643421Y-30786266D01*
X103643421Y-30786266D02*
X103595802Y-30738647D01*
X103595802Y-30738647D02*
X103500564Y-30691028D01*
X103500564Y-30691028D02*
X103310088Y-30643409D01*
X103310088Y-30643409D02*
X103214850Y-30595790D01*
X103214850Y-30595790D02*
X103167231Y-30548171D01*
X103167231Y-30548171D02*
X103119612Y-30452933D01*
X103119612Y-30452933D02*
X103119612Y-30357695D01*
X103119612Y-30357695D02*
X103167231Y-30262457D01*
X103167231Y-30262457D02*
X103214850Y-30214838D01*
X103214850Y-30214838D02*
X103310088Y-30167219D01*
X103310088Y-30167219D02*
X103548183Y-30167219D01*
X103548183Y-30167219D02*
X103691040Y-30214838D01*
X103976755Y-30167219D02*
X104548183Y-30167219D01*
X104262469Y-31167219D02*
X104262469Y-30167219D01*
X125893244Y-40660552D02*
X125893244Y-41327219D01*
X125655149Y-40279600D02*
X125417054Y-40993885D01*
X125417054Y-40993885D02*
X126036101Y-40993885D01*
X125988482Y-32754838D02*
X125893244Y-32707219D01*
X125893244Y-32707219D02*
X125750387Y-32707219D01*
X125750387Y-32707219D02*
X125607530Y-32754838D01*
X125607530Y-32754838D02*
X125512292Y-32850076D01*
X125512292Y-32850076D02*
X125464673Y-32945314D01*
X125464673Y-32945314D02*
X125417054Y-33135790D01*
X125417054Y-33135790D02*
X125417054Y-33278647D01*
X125417054Y-33278647D02*
X125464673Y-33469123D01*
X125464673Y-33469123D02*
X125512292Y-33564361D01*
X125512292Y-33564361D02*
X125607530Y-33659600D01*
X125607530Y-33659600D02*
X125750387Y-33707219D01*
X125750387Y-33707219D02*
X125845625Y-33707219D01*
X125845625Y-33707219D02*
X125988482Y-33659600D01*
X125988482Y-33659600D02*
X126036101Y-33611980D01*
X126036101Y-33611980D02*
X126036101Y-33278647D01*
X126036101Y-33278647D02*
X125845625Y-33278647D01*
X126464673Y-33707219D02*
X126464673Y-32707219D01*
X126464673Y-32707219D02*
X127036101Y-33707219D01*
X127036101Y-33707219D02*
X127036101Y-32707219D01*
X127512292Y-33707219D02*
X127512292Y-32707219D01*
X127512292Y-32707219D02*
X127750387Y-32707219D01*
X127750387Y-32707219D02*
X127893244Y-32754838D01*
X127893244Y-32754838D02*
X127988482Y-32850076D01*
X127988482Y-32850076D02*
X128036101Y-32945314D01*
X128036101Y-32945314D02*
X128083720Y-33135790D01*
X128083720Y-33135790D02*
X128083720Y-33278647D01*
X128083720Y-33278647D02*
X128036101Y-33469123D01*
X128036101Y-33469123D02*
X127988482Y-33564361D01*
X127988482Y-33564361D02*
X127893244Y-33659600D01*
X127893244Y-33659600D02*
X127750387Y-33707219D01*
X127750387Y-33707219D02*
X127512292Y-33707219D01*
X125655149Y-27627219D02*
X125750387Y-27627219D01*
X125750387Y-27627219D02*
X125845625Y-27674838D01*
X125845625Y-27674838D02*
X125893244Y-27722457D01*
X125893244Y-27722457D02*
X125940863Y-27817695D01*
X125940863Y-27817695D02*
X125988482Y-28008171D01*
X125988482Y-28008171D02*
X125988482Y-28246266D01*
X125988482Y-28246266D02*
X125940863Y-28436742D01*
X125940863Y-28436742D02*
X125893244Y-28531980D01*
X125893244Y-28531980D02*
X125845625Y-28579600D01*
X125845625Y-28579600D02*
X125750387Y-28627219D01*
X125750387Y-28627219D02*
X125655149Y-28627219D01*
X125655149Y-28627219D02*
X125559911Y-28579600D01*
X125559911Y-28579600D02*
X125512292Y-28531980D01*
X125512292Y-28531980D02*
X125464673Y-28436742D01*
X125464673Y-28436742D02*
X125417054Y-28246266D01*
X125417054Y-28246266D02*
X125417054Y-28008171D01*
X125417054Y-28008171D02*
X125464673Y-27817695D01*
X125464673Y-27817695D02*
X125512292Y-27722457D01*
X125512292Y-27722457D02*
X125559911Y-27674838D01*
X125559911Y-27674838D02*
X125655149Y-27627219D01*
X114601667Y-50487217D02*
X115268333Y-50487217D01*
X115268333Y-50487217D02*
X114839762Y-51487217D01*
X103500564Y-48947219D02*
X102929136Y-48947219D01*
X103214850Y-48947219D02*
X103214850Y-47947219D01*
X103214850Y-47947219D02*
X103119612Y-48090076D01*
X103119612Y-48090076D02*
X103024374Y-48185314D01*
X103024374Y-48185314D02*
X102929136Y-48232933D01*
X104357707Y-48280552D02*
X104357707Y-48947219D01*
X104119612Y-47899600D02*
X103881517Y-48613885D01*
X103881517Y-48613885D02*
X104500564Y-48613885D01*
X125988482Y-26087219D02*
X125417054Y-26087219D01*
X125702768Y-26087219D02*
X125702768Y-25087219D01*
X125702768Y-25087219D02*
X125607530Y-25230076D01*
X125607530Y-25230076D02*
X125512292Y-25325314D01*
X125512292Y-25325314D02*
X125417054Y-25372933D01*
X125512292Y-54027219D02*
X125702768Y-54027219D01*
X125702768Y-54027219D02*
X125798006Y-53979600D01*
X125798006Y-53979600D02*
X125845625Y-53931980D01*
X125845625Y-53931980D02*
X125940863Y-53789123D01*
X125940863Y-53789123D02*
X125988482Y-53598647D01*
X125988482Y-53598647D02*
X125988482Y-53217695D01*
X125988482Y-53217695D02*
X125940863Y-53122457D01*
X125940863Y-53122457D02*
X125893244Y-53074838D01*
X125893244Y-53074838D02*
X125798006Y-53027219D01*
X125798006Y-53027219D02*
X125607530Y-53027219D01*
X125607530Y-53027219D02*
X125512292Y-53074838D01*
X125512292Y-53074838D02*
X125464673Y-53122457D01*
X125464673Y-53122457D02*
X125417054Y-53217695D01*
X125417054Y-53217695D02*
X125417054Y-53455790D01*
X125417054Y-53455790D02*
X125464673Y-53551028D01*
X125464673Y-53551028D02*
X125512292Y-53598647D01*
X125512292Y-53598647D02*
X125607530Y-53646266D01*
X125607530Y-53646266D02*
X125798006Y-53646266D01*
X125798006Y-53646266D02*
X125893244Y-53598647D01*
X125893244Y-53598647D02*
X125940863Y-53551028D01*
X125940863Y-53551028D02*
X125988482Y-53455790D01*
X120300714Y-51487219D02*
X119729286Y-51487219D01*
X120015000Y-51487219D02*
X120015000Y-50487219D01*
X120015000Y-50487219D02*
X119919762Y-50630076D01*
X119919762Y-50630076D02*
X119824524Y-50725314D01*
X119824524Y-50725314D02*
X119729286Y-50772933D01*
X125607530Y-50915790D02*
X125512292Y-50868171D01*
X125512292Y-50868171D02*
X125464673Y-50820552D01*
X125464673Y-50820552D02*
X125417054Y-50725314D01*
X125417054Y-50725314D02*
X125417054Y-50677695D01*
X125417054Y-50677695D02*
X125464673Y-50582457D01*
X125464673Y-50582457D02*
X125512292Y-50534838D01*
X125512292Y-50534838D02*
X125607530Y-50487219D01*
X125607530Y-50487219D02*
X125798006Y-50487219D01*
X125798006Y-50487219D02*
X125893244Y-50534838D01*
X125893244Y-50534838D02*
X125940863Y-50582457D01*
X125940863Y-50582457D02*
X125988482Y-50677695D01*
X125988482Y-50677695D02*
X125988482Y-50725314D01*
X125988482Y-50725314D02*
X125940863Y-50820552D01*
X125940863Y-50820552D02*
X125893244Y-50868171D01*
X125893244Y-50868171D02*
X125798006Y-50915790D01*
X125798006Y-50915790D02*
X125607530Y-50915790D01*
X125607530Y-50915790D02*
X125512292Y-50963409D01*
X125512292Y-50963409D02*
X125464673Y-51011028D01*
X125464673Y-51011028D02*
X125417054Y-51106266D01*
X125417054Y-51106266D02*
X125417054Y-51296742D01*
X125417054Y-51296742D02*
X125464673Y-51391980D01*
X125464673Y-51391980D02*
X125512292Y-51439600D01*
X125512292Y-51439600D02*
X125607530Y-51487219D01*
X125607530Y-51487219D02*
X125798006Y-51487219D01*
X125798006Y-51487219D02*
X125893244Y-51439600D01*
X125893244Y-51439600D02*
X125940863Y-51391980D01*
X125940863Y-51391980D02*
X125988482Y-51296742D01*
X125988482Y-51296742D02*
X125988482Y-51106266D01*
X125988482Y-51106266D02*
X125940863Y-51011028D01*
X125940863Y-51011028D02*
X125893244Y-50963409D01*
X125893244Y-50963409D02*
X125798006Y-50915790D01*
X125940863Y-42867219D02*
X125464673Y-42867219D01*
X125464673Y-42867219D02*
X125417054Y-43343409D01*
X125417054Y-43343409D02*
X125464673Y-43295790D01*
X125464673Y-43295790D02*
X125559911Y-43248171D01*
X125559911Y-43248171D02*
X125798006Y-43248171D01*
X125798006Y-43248171D02*
X125893244Y-43295790D01*
X125893244Y-43295790D02*
X125940863Y-43343409D01*
X125940863Y-43343409D02*
X125988482Y-43438647D01*
X125988482Y-43438647D02*
X125988482Y-43676742D01*
X125988482Y-43676742D02*
X125940863Y-43771980D01*
X125940863Y-43771980D02*
X125893244Y-43819600D01*
X125893244Y-43819600D02*
X125798006Y-43867219D01*
X125798006Y-43867219D02*
X125559911Y-43867219D01*
X125559911Y-43867219D02*
X125464673Y-43819600D01*
X125464673Y-43819600D02*
X125417054Y-43771980D01*
X103500564Y-51487219D02*
X102929136Y-51487219D01*
X103214850Y-51487219D02*
X103214850Y-50487219D01*
X103214850Y-50487219D02*
X103119612Y-50630076D01*
X103119612Y-50630076D02*
X103024374Y-50725314D01*
X103024374Y-50725314D02*
X102929136Y-50772933D01*
X104357707Y-50487219D02*
X104167231Y-50487219D01*
X104167231Y-50487219D02*
X104071993Y-50534838D01*
X104071993Y-50534838D02*
X104024374Y-50582457D01*
X104024374Y-50582457D02*
X103929136Y-50725314D01*
X103929136Y-50725314D02*
X103881517Y-50915790D01*
X103881517Y-50915790D02*
X103881517Y-51296742D01*
X103881517Y-51296742D02*
X103929136Y-51391980D01*
X103929136Y-51391980D02*
X103976755Y-51439600D01*
X103976755Y-51439600D02*
X104071993Y-51487219D01*
X104071993Y-51487219D02*
X104262469Y-51487219D01*
X104262469Y-51487219D02*
X104357707Y-51439600D01*
X104357707Y-51439600D02*
X104405326Y-51391980D01*
X104405326Y-51391980D02*
X104452945Y-51296742D01*
X104452945Y-51296742D02*
X104452945Y-51058647D01*
X104452945Y-51058647D02*
X104405326Y-50963409D01*
X104405326Y-50963409D02*
X104357707Y-50915790D01*
X104357707Y-50915790D02*
X104262469Y-50868171D01*
X104262469Y-50868171D02*
X104071993Y-50868171D01*
X104071993Y-50868171D02*
X103976755Y-50915790D01*
X103976755Y-50915790D02*
X103929136Y-50963409D01*
X103929136Y-50963409D02*
X103881517Y-51058647D01*
X103500564Y-41327219D02*
X102929136Y-41327219D01*
X103214850Y-41327219D02*
X103214850Y-40327219D01*
X103214850Y-40327219D02*
X103119612Y-40470076D01*
X103119612Y-40470076D02*
X103024374Y-40565314D01*
X103024374Y-40565314D02*
X102929136Y-40612933D01*
X103976755Y-41327219D02*
X104167231Y-41327219D01*
X104167231Y-41327219D02*
X104262469Y-41279600D01*
X104262469Y-41279600D02*
X104310088Y-41231980D01*
X104310088Y-41231980D02*
X104405326Y-41089123D01*
X104405326Y-41089123D02*
X104452945Y-40898647D01*
X104452945Y-40898647D02*
X104452945Y-40517695D01*
X104452945Y-40517695D02*
X104405326Y-40422457D01*
X104405326Y-40422457D02*
X104357707Y-40374838D01*
X104357707Y-40374838D02*
X104262469Y-40327219D01*
X104262469Y-40327219D02*
X104071993Y-40327219D01*
X104071993Y-40327219D02*
X103976755Y-40374838D01*
X103976755Y-40374838D02*
X103929136Y-40422457D01*
X103929136Y-40422457D02*
X103881517Y-40517695D01*
X103881517Y-40517695D02*
X103881517Y-40755790D01*
X103881517Y-40755790D02*
X103929136Y-40851028D01*
X103929136Y-40851028D02*
X103976755Y-40898647D01*
X103976755Y-40898647D02*
X104071993Y-40946266D01*
X104071993Y-40946266D02*
X104262469Y-40946266D01*
X104262469Y-40946266D02*
X104357707Y-40898647D01*
X104357707Y-40898647D02*
X104405326Y-40851028D01*
X104405326Y-40851028D02*
X104452945Y-40755790D01*
X103500564Y-54027219D02*
X102929136Y-54027219D01*
X103214850Y-54027219D02*
X103214850Y-53027219D01*
X103214850Y-53027219D02*
X103119612Y-53170076D01*
X103119612Y-53170076D02*
X103024374Y-53265314D01*
X103024374Y-53265314D02*
X102929136Y-53312933D01*
X104119612Y-53027219D02*
X104214850Y-53027219D01*
X104214850Y-53027219D02*
X104310088Y-53074838D01*
X104310088Y-53074838D02*
X104357707Y-53122457D01*
X104357707Y-53122457D02*
X104405326Y-53217695D01*
X104405326Y-53217695D02*
X104452945Y-53408171D01*
X104452945Y-53408171D02*
X104452945Y-53646266D01*
X104452945Y-53646266D02*
X104405326Y-53836742D01*
X104405326Y-53836742D02*
X104357707Y-53931980D01*
X104357707Y-53931980D02*
X104310088Y-53979600D01*
X104310088Y-53979600D02*
X104214850Y-54027219D01*
X104214850Y-54027219D02*
X104119612Y-54027219D01*
X104119612Y-54027219D02*
X104024374Y-53979600D01*
X104024374Y-53979600D02*
X103976755Y-53931980D01*
X103976755Y-53931980D02*
X103929136Y-53836742D01*
X103929136Y-53836742D02*
X103881517Y-53646266D01*
X103881517Y-53646266D02*
X103881517Y-53408171D01*
X103881517Y-53408171D02*
X103929136Y-53217695D01*
X103929136Y-53217695D02*
X103976755Y-53122457D01*
X103976755Y-53122457D02*
X104024374Y-53074838D01*
X104024374Y-53074838D02*
X104119612Y-53027219D01*
X102929136Y-35342457D02*
X102976755Y-35294838D01*
X102976755Y-35294838D02*
X103071993Y-35247219D01*
X103071993Y-35247219D02*
X103310088Y-35247219D01*
X103310088Y-35247219D02*
X103405326Y-35294838D01*
X103405326Y-35294838D02*
X103452945Y-35342457D01*
X103452945Y-35342457D02*
X103500564Y-35437695D01*
X103500564Y-35437695D02*
X103500564Y-35532933D01*
X103500564Y-35532933D02*
X103452945Y-35675790D01*
X103452945Y-35675790D02*
X102881517Y-36247219D01*
X102881517Y-36247219D02*
X103500564Y-36247219D01*
X104452945Y-36247219D02*
X103881517Y-36247219D01*
X104167231Y-36247219D02*
X104167231Y-35247219D01*
X104167231Y-35247219D02*
X104071993Y-35390076D01*
X104071993Y-35390076D02*
X103976755Y-35485314D01*
X103976755Y-35485314D02*
X103881517Y-35532933D01*
X101643422Y-32707219D02*
X102262469Y-32707219D01*
X102262469Y-32707219D02*
X101929136Y-33088171D01*
X101929136Y-33088171D02*
X102071993Y-33088171D01*
X102071993Y-33088171D02*
X102167231Y-33135790D01*
X102167231Y-33135790D02*
X102214850Y-33183409D01*
X102214850Y-33183409D02*
X102262469Y-33278647D01*
X102262469Y-33278647D02*
X102262469Y-33516742D01*
X102262469Y-33516742D02*
X102214850Y-33611980D01*
X102214850Y-33611980D02*
X102167231Y-33659600D01*
X102167231Y-33659600D02*
X102071993Y-33707219D01*
X102071993Y-33707219D02*
X101786279Y-33707219D01*
X101786279Y-33707219D02*
X101691041Y-33659600D01*
X101691041Y-33659600D02*
X101643422Y-33611980D01*
X102691041Y-33611980D02*
X102738660Y-33659600D01*
X102738660Y-33659600D02*
X102691041Y-33707219D01*
X102691041Y-33707219D02*
X102643422Y-33659600D01*
X102643422Y-33659600D02*
X102691041Y-33611980D01*
X102691041Y-33611980D02*
X102691041Y-33707219D01*
X103071993Y-32707219D02*
X103691040Y-32707219D01*
X103691040Y-32707219D02*
X103357707Y-33088171D01*
X103357707Y-33088171D02*
X103500564Y-33088171D01*
X103500564Y-33088171D02*
X103595802Y-33135790D01*
X103595802Y-33135790D02*
X103643421Y-33183409D01*
X103643421Y-33183409D02*
X103691040Y-33278647D01*
X103691040Y-33278647D02*
X103691040Y-33516742D01*
X103691040Y-33516742D02*
X103643421Y-33611980D01*
X103643421Y-33611980D02*
X103595802Y-33659600D01*
X103595802Y-33659600D02*
X103500564Y-33707219D01*
X103500564Y-33707219D02*
X103214850Y-33707219D01*
X103214850Y-33707219D02*
X103119612Y-33659600D01*
X103119612Y-33659600D02*
X103071993Y-33611980D01*
X104024374Y-33040552D02*
X104262469Y-33707219D01*
X104262469Y-33707219D02*
X104500564Y-33040552D01*
X102357707Y-27674838D02*
X102262469Y-27627219D01*
X102262469Y-27627219D02*
X102119612Y-27627219D01*
X102119612Y-27627219D02*
X101976755Y-27674838D01*
X101976755Y-27674838D02*
X101881517Y-27770076D01*
X101881517Y-27770076D02*
X101833898Y-27865314D01*
X101833898Y-27865314D02*
X101786279Y-28055790D01*
X101786279Y-28055790D02*
X101786279Y-28198647D01*
X101786279Y-28198647D02*
X101833898Y-28389123D01*
X101833898Y-28389123D02*
X101881517Y-28484361D01*
X101881517Y-28484361D02*
X101976755Y-28579600D01*
X101976755Y-28579600D02*
X102119612Y-28627219D01*
X102119612Y-28627219D02*
X102214850Y-28627219D01*
X102214850Y-28627219D02*
X102357707Y-28579600D01*
X102357707Y-28579600D02*
X102405326Y-28531980D01*
X102405326Y-28531980D02*
X102405326Y-28198647D01*
X102405326Y-28198647D02*
X102214850Y-28198647D01*
X102833898Y-28627219D02*
X102833898Y-27627219D01*
X102833898Y-27627219D02*
X103405326Y-28627219D01*
X103405326Y-28627219D02*
X103405326Y-27627219D01*
X103881517Y-28627219D02*
X103881517Y-27627219D01*
X103881517Y-27627219D02*
X104119612Y-27627219D01*
X104119612Y-27627219D02*
X104262469Y-27674838D01*
X104262469Y-27674838D02*
X104357707Y-27770076D01*
X104357707Y-27770076D02*
X104405326Y-27865314D01*
X104405326Y-27865314D02*
X104452945Y-28055790D01*
X104452945Y-28055790D02*
X104452945Y-28198647D01*
X104452945Y-28198647D02*
X104405326Y-28389123D01*
X104405326Y-28389123D02*
X104357707Y-28484361D01*
X104357707Y-28484361D02*
X104262469Y-28579600D01*
X104262469Y-28579600D02*
X104119612Y-28627219D01*
X104119612Y-28627219D02*
X103881517Y-28627219D01*
D12*
X123698095Y-70637200D02*
X123840952Y-70684819D01*
X123840952Y-70684819D02*
X124079047Y-70684819D01*
X124079047Y-70684819D02*
X124174285Y-70637200D01*
X124174285Y-70637200D02*
X124221904Y-70589580D01*
X124221904Y-70589580D02*
X124269523Y-70494342D01*
X124269523Y-70494342D02*
X124269523Y-70399104D01*
X124269523Y-70399104D02*
X124221904Y-70303866D01*
X124221904Y-70303866D02*
X124174285Y-70256247D01*
X124174285Y-70256247D02*
X124079047Y-70208628D01*
X124079047Y-70208628D02*
X123888571Y-70161009D01*
X123888571Y-70161009D02*
X123793333Y-70113390D01*
X123793333Y-70113390D02*
X123745714Y-70065771D01*
X123745714Y-70065771D02*
X123698095Y-69970533D01*
X123698095Y-69970533D02*
X123698095Y-69875295D01*
X123698095Y-69875295D02*
X123745714Y-69780057D01*
X123745714Y-69780057D02*
X123793333Y-69732438D01*
X123793333Y-69732438D02*
X123888571Y-69684819D01*
X123888571Y-69684819D02*
X124126666Y-69684819D01*
X124126666Y-69684819D02*
X124269523Y-69732438D01*
X124650476Y-69780057D02*
X124698095Y-69732438D01*
X124698095Y-69732438D02*
X124793333Y-69684819D01*
X124793333Y-69684819D02*
X125031428Y-69684819D01*
X125031428Y-69684819D02*
X125126666Y-69732438D01*
X125126666Y-69732438D02*
X125174285Y-69780057D01*
X125174285Y-69780057D02*
X125221904Y-69875295D01*
X125221904Y-69875295D02*
X125221904Y-69970533D01*
X125221904Y-69970533D02*
X125174285Y-70113390D01*
X125174285Y-70113390D02*
X124602857Y-70684819D01*
X124602857Y-70684819D02*
X125221904Y-70684819D01*
X104648095Y-70637200D02*
X104790952Y-70684819D01*
X104790952Y-70684819D02*
X105029047Y-70684819D01*
X105029047Y-70684819D02*
X105124285Y-70637200D01*
X105124285Y-70637200D02*
X105171904Y-70589580D01*
X105171904Y-70589580D02*
X105219523Y-70494342D01*
X105219523Y-70494342D02*
X105219523Y-70399104D01*
X105219523Y-70399104D02*
X105171904Y-70303866D01*
X105171904Y-70303866D02*
X105124285Y-70256247D01*
X105124285Y-70256247D02*
X105029047Y-70208628D01*
X105029047Y-70208628D02*
X104838571Y-70161009D01*
X104838571Y-70161009D02*
X104743333Y-70113390D01*
X104743333Y-70113390D02*
X104695714Y-70065771D01*
X104695714Y-70065771D02*
X104648095Y-69970533D01*
X104648095Y-69970533D02*
X104648095Y-69875295D01*
X104648095Y-69875295D02*
X104695714Y-69780057D01*
X104695714Y-69780057D02*
X104743333Y-69732438D01*
X104743333Y-69732438D02*
X104838571Y-69684819D01*
X104838571Y-69684819D02*
X105076666Y-69684819D01*
X105076666Y-69684819D02*
X105219523Y-69732438D01*
X106171904Y-70684819D02*
X105600476Y-70684819D01*
X105886190Y-70684819D02*
X105886190Y-69684819D01*
X105886190Y-69684819D02*
X105790952Y-69827676D01*
X105790952Y-69827676D02*
X105695714Y-69922914D01*
X105695714Y-69922914D02*
X105600476Y-69970533D01*
D11*
X105785000Y-21545000D02*
X105785000Y-54845000D01*
X124085000Y-54845000D02*
X105785000Y-54845000D01*
X124085000Y-21545000D02*
X105785000Y-21545000D01*
X124085000Y-21545000D02*
X124085000Y-54845000D01*
D13*
X117360000Y-69330000D02*
X131560000Y-69330000D01*
X117360000Y-55130000D02*
X117360000Y-69330000D01*
X131560000Y-55130000D02*
X117360000Y-55130000D01*
X131560000Y-69330000D02*
X131560000Y-55130000D01*
X112510000Y-69330000D02*
X112510000Y-55130000D01*
X112510000Y-55130000D02*
X98310000Y-55130000D01*
X98310000Y-55130000D02*
X98310000Y-69330000D01*
X98310000Y-69330000D02*
X112510000Y-69330000D01*
%LPC*%
D14*
X117435000Y-46370000D03*
X112435000Y-46370000D03*
D15*
X109335000Y-39370000D03*
X120535000Y-39370000D03*
D14*
X114935000Y-31870000D03*
X112435000Y-31870000D03*
D16*
X117435000Y-31870000D03*
D17*
X114935000Y-48495000D03*
X117475000Y-48495000D03*
X120015000Y-48495000D03*
X107315000Y-25635000D03*
X107315000Y-28175000D03*
X107315000Y-30715000D03*
X107315000Y-33255000D03*
X107315000Y-35795000D03*
X107315000Y-38335000D03*
X107315000Y-40875000D03*
X107315000Y-43415000D03*
X107315000Y-45955000D03*
X107315000Y-48495000D03*
X107315000Y-51035000D03*
X107315000Y-53575000D03*
X122555000Y-53575000D03*
X122555000Y-51035000D03*
X122555000Y-48495000D03*
X122555000Y-45955000D03*
X122555000Y-43415000D03*
X122555000Y-40875000D03*
X122555000Y-38335000D03*
X122555000Y-35795000D03*
X122555000Y-33255000D03*
X122555000Y-30715000D03*
X122555000Y-28175000D03*
X122555000Y-25635000D03*
D18*
X119380000Y-62230000D03*
X129540000Y-62230000D03*
D19*
X124460000Y-62230000D03*
D20*
X121920000Y-67310000D03*
X128270000Y-64770000D03*
X109220000Y-64770000D03*
X102870000Y-67310000D03*
D19*
X105410000Y-62230000D03*
D18*
X110490000Y-62230000D03*
X100330000Y-62230000D03*
D21*
X99735086Y-31750000D03*
D22*
X101735086Y-31750000D03*
%LPD*%
M02*
