G04 #@! TF.GenerationSoftware,KiCad,Pcbnew,8.0.7*
G04 #@! TF.CreationDate,2024-12-28T18:40:06+08:00*
G04 #@! TF.ProjectId,macroknob,6d616372-6f6b-46e6-9f62-2e6b69636164,rev?*
G04 #@! TF.SameCoordinates,Original*
G04 #@! TF.FileFunction,Copper,L1,Top*
G04 #@! TF.FilePolarity,Positive*
%FSLAX46Y46*%
G04 Gerber Fmt 4.6, Leading zero omitted, Abs format (unit mm)*
G04 Created by KiCad (PCBNEW 8.0.7) date 2024-12-28 18:40:06*
%MOMM*%
%LPD*%
G01*
G04 APERTURE LIST*
G04 Aperture macros list*
%AMRoundRect*
0 Rectangle with rounded corners*
0 $1 Rounding radius*
0 $2 $3 $4 $5 $6 $7 $8 $9 X,Y pos of 4 corners*
0 Add a 4 corners polygon primitive as box body*
4,1,4,$2,$3,$4,$5,$6,$7,$8,$9,$2,$3,0*
0 Add four circle primitives for the rounded corners*
1,1,$1+$1,$2,$3*
1,1,$1+$1,$4,$5*
1,1,$1+$1,$6,$7*
1,1,$1+$1,$8,$9*
0 Add four rect primitives between the rounded corners*
20,1,$1+$1,$2,$3,$4,$5,0*
20,1,$1+$1,$4,$5,$6,$7,0*
20,1,$1+$1,$6,$7,$8,$9,0*
20,1,$1+$1,$8,$9,$2,$3,0*%
G04 Aperture macros list end*
G04 #@! TA.AperFunction,ComponentPad*
%ADD10C,2.000000*%
G04 #@! TD*
G04 #@! TA.AperFunction,ComponentPad*
%ADD11R,2.000000X3.200000*%
G04 #@! TD*
G04 #@! TA.AperFunction,ComponentPad*
%ADD12R,2.000000X2.000000*%
G04 #@! TD*
G04 #@! TA.AperFunction,ComponentPad*
%ADD13C,1.752600*%
G04 #@! TD*
G04 #@! TA.AperFunction,ComponentPad*
%ADD14C,2.500000*%
G04 #@! TD*
G04 #@! TA.AperFunction,ComponentPad*
%ADD15O,1.200000X1.750000*%
G04 #@! TD*
G04 #@! TA.AperFunction,ComponentPad*
%ADD16RoundRect,0.250000X0.350000X0.625000X-0.350000X0.625000X-0.350000X-0.625000X0.350000X-0.625000X0*%
G04 #@! TD*
G04 #@! TA.AperFunction,Conductor*
%ADD17C,0.500000*%
G04 #@! TD*
G04 #@! TA.AperFunction,Conductor*
%ADD18C,0.200000*%
G04 #@! TD*
G04 APERTURE END LIST*
D10*
X117435000Y-46370000D03*
X112435000Y-46370000D03*
D11*
X109335000Y-39370000D03*
X120535000Y-39370000D03*
D10*
X114935000Y-31870000D03*
X112435000Y-31870000D03*
D12*
X117435000Y-31870000D03*
D13*
X114935000Y-48495000D03*
X117475000Y-48495000D03*
X120015000Y-48495000D03*
X107315000Y-25635000D03*
X107315000Y-28175000D03*
X107315000Y-30715000D03*
X107315000Y-33255000D03*
X107315000Y-35795000D03*
X107315000Y-38335000D03*
X107315000Y-40875000D03*
X107315000Y-43415000D03*
X107315000Y-45955000D03*
X107315000Y-48495000D03*
X107315000Y-51035000D03*
X107315000Y-53575000D03*
X122555000Y-53575000D03*
X122555000Y-51035000D03*
X122555000Y-48495000D03*
X122555000Y-45955000D03*
X122555000Y-43415000D03*
X122555000Y-40875000D03*
X122555000Y-38335000D03*
X122555000Y-35795000D03*
X122555000Y-33255000D03*
X122555000Y-30715000D03*
X122555000Y-28175000D03*
X122555000Y-25635000D03*
D14*
X121920000Y-67310000D03*
X128270000Y-64770000D03*
X109220000Y-64770000D03*
X102870000Y-67310000D03*
D15*
X99735086Y-31750000D03*
D16*
X101735086Y-31750000D03*
D17*
X106830043Y-25635000D02*
X107315000Y-25635000D01*
X101735086Y-31750000D02*
X101735086Y-30729957D01*
X101735086Y-30729957D02*
X106830043Y-25635000D01*
D18*
X122140000Y-46370000D02*
X122555000Y-45955000D01*
X117435000Y-46370000D02*
X122140000Y-46370000D01*
X118630000Y-31870000D02*
X122555000Y-35795000D01*
X117435000Y-31870000D02*
X118630000Y-31870000D01*
X108510000Y-35795000D02*
X107315000Y-35795000D01*
X112435000Y-31870000D02*
X108510000Y-35795000D01*
X109220000Y-55480000D02*
X107315000Y-53575000D01*
X109220000Y-64770000D02*
X109220000Y-55480000D01*
X128270000Y-59290000D02*
X122555000Y-53575000D01*
X128270000Y-64770000D02*
X128270000Y-59290000D01*
M02*
