M48
; DRILL file {KiCad 8.0.7} date 2024-12-28T18:40:46+0800
; FORMAT={-:-/ absolute / metric / decimal}
; #@! TF.CreationDate,2024-12-28T18:40:46+08:00
; #@! TF.GenerationSoftware,Kicad,Pcbnew,8.0.7
; #@! TF.FileFunction,Plated,1,2,PTH
FMAT,2
METRIC
; #@! TA.AperFunction,Plated,PTH,ComponentDrill
T1C0.750
; #@! TA.AperFunction,Plated,PTH,ComponentDrill
T2C1.000
; #@! TA.AperFunction,Plated,PTH,ComponentDrill
T3C1.092
; #@! TA.AperFunction,Plated,PTH,ComponentDrill
T4C1.500
%
G90
G05
T1
X99.735Y-31.75
X101.735Y-31.75
T2
X112.435Y-31.87
X112.435Y-46.37
X114.935Y-31.87
X117.435Y-31.87
X117.435Y-46.37
T3
X107.315Y-25.635
X107.315Y-28.175
X107.315Y-30.715
X107.315Y-33.255
X107.315Y-35.795
X107.315Y-38.335
X107.315Y-40.875
X107.315Y-43.415
X107.315Y-45.955
X107.315Y-48.495
X107.315Y-51.035
X107.315Y-53.575
X114.935Y-48.495
X117.475Y-48.495
X120.015Y-48.495
X122.555Y-25.635
X122.555Y-28.175
X122.555Y-30.715
X122.555Y-33.255
X122.555Y-35.795
X122.555Y-38.335
X122.555Y-40.875
X122.555Y-43.415
X122.555Y-45.955
X122.555Y-48.495
X122.555Y-51.035
X122.555Y-53.575
T4
X102.87Y-67.31
X109.22Y-64.77
X121.92Y-67.31
X128.27Y-64.77
T4
X109.335Y-38.72G85X109.335Y-40.02
G05
X120.535Y-38.72G85X120.535Y-40.02
G05
M30
